PathFileType	4	(X/Y/Z)	Run_300 02
DataRate	CameraRate	NumFrames	NumMarkers	Units	OrigDataRate	OrigDataStartFrame	OrigNumFrames
100	100	6	45	mm	100	161	137
Frame#	Time	LASI			RASI			LPSI			RPSI			RTH1			RTH2			RTH3			LTH1			LTH2			LTH3			RTB1			RTB2			RTB3			RLMAL			RMMAL			LTB1			LTB2			LTB3			RCAL			RTOE			RMT5			LCAL			LTOE			LMT5			LACR			RACR			CLAV			C7			LPSH			RUA1			RUA2			RUA3			RLEL			RMEL			LUA1			LUA2			LUA3			LLEL			LMEL			RFAsuperior			RFAradius			RFAulna			LFAsuperior			LFAradius			LFAulna			
		X1	Y1	Z1	X2	Y2	Z2	X3	Y3	Z3	X4	Y4	Z4	X5	Y5	Z5	X6	Y6	Z6	X7	Y7	Z7	X8	Y8	Z8	X9	Y9	Z9	X10	Y10	Z10	X11	Y11	Z11	X12	Y12	Z12	X13	Y13	Z13	X14	Y14	Z14	X15	Y15	Z15	X16	Y16	Z16	X17	Y17	Z17	X18	Y18	Z18	X19	Y19	Z19	X20	Y20	Z20	X21	Y21	Z21	X22	Y22	Z22	X23	Y23	Z23	X24	Y24	Z24	X25	Y25	Z25	X26	Y26	Z26	X27	Y27	Z27	X28	Y28	Z28	X29	Y29	Z29	X30	Y30	Z30	X31	Y31	Z31	X32	Y32	Z32	X33	Y33	Z33	X34	Y34	Z34	X35	Y35	Z35	X36	Y36	Z36	X37	Y37	Z37	X38	Y38	Z38	X39	Y39	Z39	X40	Y40	Z40	X41	Y41	Z41	X42	Y42	Z42	X43	Y43	Z43	X44	Y44	Z44	X45	Y45	Z45	

161	2.06	931.533536	1042.303838	-426.96081	932.722414	1040.51613	-193.676526	762.37326	1079.191673	-362.135545	765.47367	1079.220106	-273.970928	825.572124	785.648249	-156.301711	888.291297	711.13918	-195.462091	806.6841930000001	616.857498	-197.635841	902.2130969999999	829.829122	-477.976829	1027.981587	774.041799	-472.159012	1028.962279	668.0537870000001	-461.676509	776.638417	370.652391	-266.25889	714.482367	335.054274	-226.248343	669.334117	220.766839	-278.971827	577.06503	143.511096	-264.528218	602.325908	158.232839	-346.453118	1033.335361	473.936649	-427.821607	898.715743	474.728869	-448.077177	874.471148	365.547453	-416.95517	506.915862	133.060314	-328.9782	715.843672	63.160874	-308.293972	646.850231	58.008939	-235.335594	696.048312	342.419192	-366.936788	827.03764	164.574828	-404.576792	773.227801	202.11872	-467.727954	884.834428	1556.907649	-459.47541	919.236121	1519.442815	-147.778311	976.285975	1468.44555	-291.150674	859.191011	1560.179259	-296.318218	799.853573	1524.810791	-461.612366	882.643538	1365.379502	-60.555852	801.517613	1316.462737	-59.205143	816.001385	1258.614538	-22.407871	833.682851	1194.119729	-5.931266	786.288796	1183.209882	-83.37976999999999	781.55725	1457.888393	-531.505763	707.90995	1394.596027	-519.886161	710.156373	1356.669408	-585.218197	696.083006	1284.414946	-616.263989	664.287625	1270.649568	-531.553512	887.288005	1153.49539	-45.774352	1035.19417	1223.168954	-160.234144	1043.759681	1157.125766	-145.01206	758.54711	1220.123159	-579.533099	913.470589	1253.425526	-506.763694	910.536924	1187.241634	-525.333362	
162	2.07	933.8411160000001	1050.879569	-426.698574	935.754332	1046.588682	-195.390407	765.83572	1088.393084	-362.491008	768.463612	1087.69977	-273.836246	818.219303	793.624209	-156.864674	877.421753	716.813419	-196.369299	791.381113	626.2360210000001	-196.739281	905.928777	839.887609	-479.103293	1031.660537	785.252745	-471.999373	1033.376679	678.697886	-461.326414	754.027074	379.810806	-263.070356	691.329482	345.007503	-222.994579	646.520845	230.168429	-275.720253	554.500961	152.016022	-262.257169	580.222998	166.945624	-343.733986	1046.543683	480.195537	-426.555937	912.355552	469.734894	-446.686208	897.118795	358.966591	-415.263144	484.999058	146.912486	-326.556152	685.08886	62.33316	-307.58497	618.966265	59.023096	-234.914664	720.985514	320.687428	-364.72573	867.442509	155.432356	-403.302211	810.25579	188.092251	-466.380223	881.178891	1564.826911	-459.562524	920.640188	1528.739389	-149.029095	976.6454660000001	1477.663779	-292.962835	859.225186	1567.944636	-296.766885	796.3829899999999	1532.797215	-459.499558	887.250315	1374.961612	-60.916763	806.898669	1325.089794	-57.515741	823.225652	1267.421114	-21.283408	841.859065	1202.998675	-5.286966	791.606744	1191.973393	-81.602356	775.56648	1467.496176	-528.294313	702.236911	1404.893499	-513.879848	701.148772	1367.869608	-579.721061	685.4702140000001	1295.365408	-610.842534	656.627155	1282.09187	-525.019144	895.042014	1165.230544	-48.028307	1035.430263	1242.34728	-166.957209	1047.265406	1176.797057	-152.150012	748.844723	1231.232533	-575.271023	906.025197	1265.359696	-507.74018	902.418693	1198.895486	-524.287243	
163	2.08	936.021701	1059.906297	-427.036208	938.974961	1053.185494	-197.325844	769.100721	1097.916817	-362.336441	771.544383	1096.381806	-273.491378	811.244299	802.470198	-157.267411	867.3215750000001	723.425722	-196.202091	777.4514359999999	636.650451	-194.939225	908.352403	849.8218879999999	-480.03208	1034.152425	795.460121	-472.114733	1036.219893	688.479067	-461.010305	733.292634	390.187203	-259.044733	670.041756	356.217884	-218.760717	626.033141	240.417835	-271.514434	534.044145	161.159399	-259.425465	560.974769	176.023165	-339.995958	1058.464207	485.711736	-425.250868	925.796465	463.605978	-445.426424	919.89869	351.964409	-413.369937	466.067991	161.751907	-324.167295	655.406729	61.750051	-306.295832	591.581441	60.13159	-234.221442	747.590121	298.442371	-362.431266	908.278416	147.058299	-401.269725	848.2234130000001	174.337924	-464.452001	878.138963	1572.787594	-459.621348	921.974507	1538.188717	-150.262061	977.116949	1487.094494	-294.507157	859.510932	1575.984948	-297.261293	793.4879120000001	1540.922303	-457.422092	891.186187	1384.79439	-61.345865	811.456826	1334.104577	-56.859428	829.1378089999999	1276.750458	-20.692247	848.937321	1212.259269	-4.945307	795.95955	1200.976021	-80.02493699999999	770.234105	1477.162179	-524.489958	697.515863	1415.099051	-507.382647	692.8815499999999	1379.189677	-573.626994	675.587825	1306.320625	-604.724083	649.672039	1293.49029	-517.6738810000001	901.630762	1177.092215	-50.265072	1034.782584	1260.762895	-172.932376	1049.428357	1195.519681	-159.776068	739.880035	1242.209419	-570.597897	899.239381	1276.981705	-508.139495	895.0030860000001	1210.279406	-523.1235339999999	
164	2.09	938.072195	1069.067251	-427.911258	942.195933	1060.209237	-199.249054	772.328932	1107.308662	-362.121201	774.736395	1104.87334	-273.005831	805.005812	811.7041829999999	-157.192753	858.259439	730.593664	-194.979256	764.847218	647.671244	-192.560689	909.630189	859.388267	-480.865451	1035.419795	804.44637	-472.381876	1037.444904	697.0865	-460.591017	714.5280310000001	401.194047	-253.934985	650.355206	368.255642	-213.887242	607.8686279999999	250.968858	-266.602525	515.7156660000001	170.689625	-256.148417	544.858876	184.871465	-335.432275	1068.921896	490.393193	-424.17653	938.903382	456.377083	-444.331195	942.678438	344.656146	-411.411759	450.449721	177.37039	-321.79592	626.764058	61.715402	-304.960049	564.55666	61.766294	-233.334467	775.761077	276.080261	-360.1957	949.3480520000001	139.567409	-398.552431	886.994307	160.987408	-461.954754	875.758248	1580.621712	-459.678169	923.314137	1547.492632	-151.51537	977.6826600000001	1496.384648	-295.78032	860.020894	1584.012727	-297.829246	791.221626	1549.057241	-455.353986	894.494466	1394.69674	-61.763193	815.382978	1343.287611	-57.011054	833.808763	1286.324102	-20.434383	854.92894	1221.611153	-4.842854	799.633303	1210.022172	-78.81281	765.712448	1486.776093	-520.585236	693.724659	1425.233589	-500.701756	685.567677	1390.299201	-567.1025079999999	666.558308	1317.028352	-598.022555	643.5943119999999	1304.708675	-509.744289	907.135183	1188.688325	-52.440197	1033.545729	1278.179264	-178.093602	1050.468911	1213.107096	-167.344831	731.7490780000001	1252.875362	-565.525979	893.178008	1288.049475	-508.253452	888.360107	1221.137384	-521.913804	
165	2.1	940.015381	1077.986471	-429.109968	945.323837	1067.344748	-200.96574	775.674478	1116.225717	-362.185112	778.0622069999999	1112.849308	-272.628719	799.850517	820.716806	-156.640466	850.3709250000001	737.9174850000001	-192.949151	753.644578	658.776469	-190.274961	910.295281	868.421509	-481.661211	1035.682579	812.094707	-472.579542	1037.100926	704.233806	-459.848021	697.95356	412.303857	-248.110111	632.292568	380.669117	-208.984689	591.814978	261.480091	-261.521476	499.456017	180.695415	-252.620162	531.3262999999999	193.628202	-330.547824	1077.731835	494.018749	-423.493234	951.4538250000001	448.123491	-443.308718	965.3046900000001	337.135015	-409.528277	437.848579	193.842682	-319.157251	599.337012	62.680361	-303.82634	538.2779389999999	64.93522	-232.379068	805.272937	253.935752	-357.971975	990.400558	133.160504	-395.299266	926.326292	148.285228	-458.94602	874.059779	1588.178994	-459.773745	924.633814	1556.38675	-152.812804	978.288771	1505.174432	-296.807946	860.682876	1591.749788	-298.48398	789.61229	1557.075207	-453.412111	897.251438	1404.427296	-62.164984	818.7971690000001	1352.371084	-57.524569	837.547819	1295.767255	-20.366174	859.9696300000001	1230.72059	-4.938871	802.920527	1218.910761	-78.10915	762.098281	1496.155492	-517.05987	690.827019	1435.299744	-494.125355	679.352846	1400.912184	-560.353426	658.461877	1327.251815	-590.829515	638.52545	1315.550533	-501.462052	911.622357	1199.689178	-54.569128	1031.877942	1294.323797	-182.599808	1050.575999	1229.460485	-174.025771	724.493103	1263.061224	-559.950206	887.877189	1298.355698	-508.323137	882.495961	1231.257603	-520.620799	
166	2.11	941.878815	1086.278954	-430.367368	948.314886	1074.161833	-202.329829	779.131098	1124.394894	-362.516738	781.4999800000001	1120.105783	-272.628105	795.7889	829.119052	-156.006327	843.649088	745.110644	-190.44435	744.148315	669.391309	-188.589766	910.780039	876.583208	-482.241417	1035.112662	818.192616	-472.596212	1035.144481	709.62258	-458.503608	683.939712	422.998267	-242.649865	616.461911	392.918487	-204.812179	577.516718	271.946125	-257.003929	484.857	191.638058	-249.155124	519.036383	203.071774	-326.000576	1084.849857	496.306135	-423.176219	963.330572	438.907035	-442.358164	987.593647	329.519108	-407.814265	427.193376	211.179483	-316.031647	574.00319	64.971867	-302.713108	513.532844	70.83053099999999	-231.448066	835.788322	232.392867	-355.64621	1031.017794	128.126919	-391.637532	965.827439	136.567821	-455.484995	873.028318	1595.29102	-459.927956	925.877418	1564.618207	-154.161327	978.866894	1513.136526	-297.666156	861.416546	1598.934806	-299.201125	788.63774	1564.792555	-451.765055	899.581518	1413.66104	-62.640516	821.757933	1361.067873	-57.955835	840.701722	1304.674873	-20.432983	864.206589	1239.246573	-5.219045	805.733839	1227.364793	-77.790588	759.385956	1505.035394	-514.122537	688.809501	1445.102235	-487.937468	674.292624	1410.785298	-553.629445	651.335596	1336.780078	-583.244633	634.4761	1325.773965	-493.035477	915.171391	1209.842915	-56.641367	1029.899535	1308.880389	-186.626486	1049.943818	1244.328887	-179.551793	718.131788	1272.577118	-553.905532	883.335249	1307.743199	-508.344043	877.385754	1240.48659	-519.220612	
